Coordinates
nRows=267
nColumns=2
inDegrees=yes
endheader
time	ankle_angle_r	
4.35758	  0.289795	
4.39085	  0.226115	
4.42411	  0.193056	
4.45738	  0.184267	
4.49064	  0.177896	
4.5239	  0.171186	
4.55717	  0.169989	
4.59043	  0.170402	
4.6237	  0.168384	
4.65696	  0.165380	
4.69022	  0.162766	
4.72349	  0.160973	
4.75675	  0.160278	
4.79002	  0.164971	
4.82328	  0.179513	
4.85654	  0.195934	
4.88981	  0.204401	
4.92307	  0.208388	
4.95634	  0.211397	
4.9896	  0.212355	
5.02286	  0.215393	
5.05613	  0.220429	
5.08939	  0.221423	
5.12266	  0.218413	
5.15592	  0.212841	
5.18918	  0.206639	
5.22245	  0.206546	
5.25571	  0.211854	
5.28898	  0.215125	
5.32224	  0.214905	
5.3555	  0.210131	
5.38877	  0.201331	
5.42203	  0.197843	
5.4553	  0.201533	
5.48856	  0.201731	
5.52182	  0.194645	
5.55509	  0.186078	
5.58835	  0.184390	
5.62162	  0.195311	
5.65488	  0.209378	
5.68814	  0.211864	
5.72141	  0.204101	
5.75467	  0.193856	
5.78794	  0.186281	
5.8212	  0.188554	
5.85446	  0.197944	
5.88773	  0.201886	
5.92099	  0.198951	
5.95426	  0.195203	
5.98752	  0.190315	
6.02078	  0.182304	
6.05405	  0.170826	
6.08731	  0.158071	
6.12058	  0.151638	
6.15384	  0.155976	
6.1871	  0.166910	
6.22037	  0.178725	
6.25363	  0.188023	
6.2869	  0.194327	
6.32016	  0.197790	
6.35342	  0.196618	
6.38669	  0.193643	
6.41995	  0.192881	
6.45322	  0.190402	
6.48648	  0.186316	
6.51974	  0.190182	
6.55301	  0.207687	
6.58627	  0.234495	
6.61954	  0.254589	
6.6528	  0.252921	
6.68606	  0.238022	
6.71933	  0.228693	
6.75259	  0.229232	
6.78586	  0.236343	
6.81912	  0.243965	
6.85238	  0.242848	
6.88565	  0.234063	
6.91891	  0.225359	
6.95218	  0.220708	
6.98544	  0.226477	
7.0187	  0.241569	
7.05197	  0.250595	
7.08523	  0.248660	
7.1185	  0.244569	
7.15176	  0.241620	
7.18502	  0.241513	
7.21829	  0.246182	
7.25155	  0.250315	
7.28482	  0.251867	
7.31808	  0.254713	
7.35134	  0.258485	
7.38461	  0.264995	
7.41787	  0.278380	
7.45114	  0.292902	
7.4844	  0.299012	
7.51766	  0.293690	
7.55093	  0.282244	
7.58419	  0.274950	
7.61746	  0.272726	
7.65072	  0.267391	
7.68398	  0.260921	
7.71725	  0.261723	
7.75051	  0.268426	
7.78378	  0.275800	
7.81704	  0.280418	
7.8503	  0.277709	
7.88357	  0.270425	
7.91683	  0.266203	
7.9501	  0.263270	
7.98336	  0.258615	
8.01662	  0.256621	
8.04989	  0.259270	
8.08315	  0.264698	
8.11642	  0.270552	
8.14968	  0.273289	
8.18294	  0.273851	
8.21621	  0.275587	
8.24947	  0.277619	
8.28274	  0.281924	
8.316	  0.288502	
8.34926	  0.286957	
8.38253	  0.275661	
8.41579	  0.265517	
8.44906	  0.260330	
8.48232	  0.259301	
8.51558	  0.259872	
8.54885	  0.253782	
8.58211	  0.243448	
8.61538	  0.240617	
8.64864	  0.244513	
8.6819	  0.250040	
8.71517	  0.257829	
8.74843	  0.261839	
8.7817	  0.256989	
8.81496	  0.247486	
8.84822	  0.232907	
8.88149	  0.217642	
8.91475	  0.218500	
8.94802	  0.239064	
8.98128	  0.265454	
9.01454	  0.282673	
9.04781	  0.281005	
9.08107	  0.265226	
9.11434	  0.248873	
9.1476	  0.235097	
9.18086	  0.225044	
9.21413	  0.225245	
9.24739	  0.229491	
9.28066	  0.226524	
9.31392	  0.220566	
9.34718	  0.218950	
9.38045	  0.222056	
9.41371	  0.227118	
9.44698	  0.230048	
9.48024	  0.232809	
9.5135	  0.235635	
9.54677	  0.229375	
9.58003	  0.215070	
9.6133	  0.203990	
9.64656	  0.197929	
9.67982	  0.194822	
9.71309	  0.198563	
9.74635	  0.213238	
9.77962	  0.233868	
9.81288	  0.245220	
9.84614	  0.240665	
9.87941	  0.232199	
9.91267	  0.228301	
9.94594	  0.223910	
9.9792	  0.216816	
10.0125	  0.211873	
10.0457	  0.213207	
10.079	  0.219674	
10.1123	  0.222108	
10.1455	  0.214045	
10.1788	  0.202155	
10.212	  0.192440	
10.2453	  0.183100	
10.2786	  0.175409	
10.3118	  0.170858	
10.3451	  0.168532	
10.3784	  0.171601	
10.4116	  0.177822	
10.4449	  0.179472	
10.4782	  0.179417	
10.5114	  0.183119	
10.5447	  0.188257	
10.578	  0.192865	
10.6112	  0.196313	
10.6445	  0.200069	
10.6777	  0.208639	
10.711	  0.218422	
10.7443	  0.220613	
10.7775	  0.213959	
10.8108	  0.202254	
10.8441	  0.191269	
10.8773	  0.186079	
10.9106	  0.184741	
10.9439	  0.183579	
10.9771	  0.182262	
11.0104	  0.179824	
11.0436	  0.176021	
11.0769	  0.172373	
11.1102	  0.167878	
11.1434	  0.161074	
11.1767	  0.153822	
11.21	  0.148496	
11.2432	  0.147008	
11.2765	  0.151694	
11.3098	  0.161249	
11.343	  0.171903	
11.3763	  0.181933	
11.4096	  0.188202	
11.4428	  0.187882	
11.4761	  0.182890	
11.5093	  0.175818	
11.5426	  0.169739	
11.5759	  0.167912	
11.6091	  0.168692	
11.6424	  0.168245	
11.6757	  0.163894	
11.7089	  0.153917	
11.7422	  0.144371	
11.7755	  0.146467	
11.8087	  0.158466	
11.842	  0.168292	
11.8752	  0.171460	
11.9085	  0.169628	
11.9418	  0.165720	
11.975	  0.163000	
12.0083	  0.159553	
12.0416	  0.155698	
12.0748	  0.157721	
12.1081	  0.163755	
12.1414	  0.168141	
12.1746	  0.174612	
12.2079	  0.184759	
12.2412	  0.192514	
12.2744	  0.195652	
12.3077	  0.194325	
12.3409	  0.188963	
12.3742	  0.183586	
12.4075	  0.178956	
12.4407	  0.172942	
12.474	  0.166584	
12.5073	  0.159147	
12.5405	  0.151254	
12.5738	  0.150182	
12.6071	  0.156837	
12.6403	  0.163686	
12.6736	  0.168452	
12.7068	  0.172603	
12.7401	  0.177133	
12.7734	  0.182750	
12.8066	  0.182065	
12.8399	  0.168722	
12.8732	  0.154258	
12.9064	  0.151234	
12.9397	  0.157334	
12.973	  0.168159	
13.0062	  0.180147	
13.0395	  0.188302	
13.0728	  0.193904	
13.106	  0.198066	
13.1393	  0.196452	
13.1725	  0.189829	
13.2058	  0.182976	
